<svg xmlns="http://www.w3.org/2000/svg" version="1.1" xmlns:xlink="http://www.w3.org/1999/xlink" width="2000" height="1500" viewBox="0 0 2000 1500"><rect width="2000" height="1500" x="0" y="0" id="background" stroke="transparent" fill="#222222"></rect><svg xml:space="preserve" width="1500" height="1125" data-version="2" data-id="lg_3cghUhhnADTJeLU8kT" viewBox="0 0 522 147" x="250" y="187.5"><rect width="100%" height="100%" fill="transparent"></rect><path fill="#ff851b" d="M115.45 116.745q0-.97.04-4.23l.07-7.57q.04-4.31.04-8.47v-7.01q0-2.86-.08-3-2.07-4.9-4.41-9.73-2.34-4.82-4.64-9.57-5.49-11.88-11.13-23.6-5.64-11.73-11.36-23.46-.67-1.33-.67-2.3 0-1.41 1.19-1.74 1.19-.34 2.15-.34h16.48q1.86 0 2.82 1.86 1.56 2.97 2.86 6.38 1.3 3.42 2.63 6.53 3.27 7.95 6.53 15.89 3.27 7.94 6.68 15.88.15.22.34.59.18.37.48.37.37 0 .56-.4.18-.41.26-.63 3.34-7.95 6.53-15.89 3.19-7.94 6.38-15.81 1.19-2.82 2.64-6.6 1.44-3.79 2.7-6.31 1.04-1.86 2.82-1.86h16.41q1.04 0 2.22.34 1.19.33 1.19 1.74 0 1.04-.67 2.38-6.01 12.32-12.06 24.53-6.05 12.21-11.98 24.6-2.08 4.23-4.16 8.5t-4.01 8.65l-.07.37q0 7.42.07 14.91.08 7.5.08 15 0 3.04-3.05 3.04h-12.84q-3.04 0-3.04-3.04"></path><rect width="83.87" height="104.06" x="-41.94" y="-52.03" fill="none" rx="0" ry="0" transform="translate(125.75 68.25)"></rect><path fill="#ff851b" d="M196.79 121.195q-9.65 0-16.18-4.6-6.54-4.6-9.84-12.21-3.3-7.61-3.3-16.51v-1.19q.15-9.35 3.9-17.59 3.74-8.24 10.87-13.32 7.12-5.09 17.22-5.09 6.23 0 11.61 2.34 5.38 2.34 10.06 6.35.52.51.89.51.89 0 .85-1.85-.03-1.86.52-3.71.56-1.86 2.93-1.86h10.47q3.04 0 3.04 3.05 0 3.19-.03 6.38-.04 3.19-.04 6.38 0 8.17.11 16.4.11 8.24.19 16.41.07 3.86.18 7.75.11 3.9.11 7.83 0 3.12-3.04 3.12h-11.65q-2.01 0-2.6-1.3-.59-1.3-.52-3.08.07-1.78 0-3.19 0-.22-.07-.74-.08-.52-.45-.52-.3 0-.56.22-.26.22-.48.37-5.19 4.38-11.21 7.01-6.01 2.64-12.98 2.64m7.57-15.81q5.27 0 9.76-2.19t7.01-6.94q.15-.29.7-1.52.56-1.22.56-1.52 0-2.6-.04-5.2-.03-2.59-.03-5.12 0-1.18.07-2.63.08-1.45-.07-2.56-.08-.52-.56-1.56-.48-1.04-.7-1.49-2.6-4.67-7.35-6.97t-9.95-2.3q-5.49 0-9.65 2.74-4.15 2.75-6.49 7.24t-2.34 9.83q0 5.35 2.45 9.95t6.79 7.42q4.34 2.82 9.84 2.82"></path><rect width="72.88" height="70.51" x="-36.44" y="-35.26" fill="none" rx="0" ry="0" transform="translate(204.41 86.44)"></rect><path fill="#ff851b" d="M287.4 121.195q-5.64 0-10.8-1.78-5.16-1.78-9.54-5.49-.22-.15-.48-.41t-.63-.26q-.37 0-.45.55-.07.56-.07.78-.15 4.83-.15 9.76 0 4.94-.15 9.76 0 1.78.04 3.68.04 1.89-.11 3.67-.15 1.49-.78 2.23t-2.26.74h-11.95q-2.97 0-2.97-3.12 0-5.71.26-11.5t.41-11.43q.29-12.1.44-24.16.15-12.06.15-24.16 0-3.63-.04-7.27-.03-3.64-.03-7.27 0-3.05 3.04-3.05h9.57q2.3 0 2.86 1.86.56 1.85.63 3.67.07 1.82.89 1.82.3 0 .82-.37 5.42-4.16 11.28-6.46 5.86-2.3 12.76-2.3 10.47 0 17.59 4.9 7.13 4.9 10.77 13.06 3.63 8.17 3.63 17.89 0 10.61-4.26 18.41-4.27 7.79-12.07 12.02-7.79 4.23-18.4 4.23m-3.49-15.22q5.64 0 10.28-2.59 4.64-2.6 7.42-7.09 2.78-4.49 2.78-10.13 0-8.83-5.71-14.51-5.72-5.68-14.55-5.68-6.31 0-11.2 3.19-4.9 3.19-7.13 9.13 0 3.71-.04 7.42-.03 3.71-.03 7.42 0 .38.48 1.56l.63 1.56q2.37 4.83 7.12 7.28 4.75 2.44 9.95 2.44"></path><rect width="75.03" height="93.74" x="-37.52" y="-46.87" fill="none" rx="0" ry="0" transform="translate(285.12 98.06)"></rect><path fill="#ff851b" d="M366.43 121.195q-5.64 0-10.8-1.78-5.15-1.78-9.53-5.49-.23-.15-.49-.41-.25-.26-.63-.26-.37 0-.44.55-.08.56-.08.78-.14 4.83-.14 9.76 0 4.94-.15 9.76 0 1.78.03 3.68.04 1.89-.11 3.67-.15 1.49-.78 2.23t-2.26.74H329.1q-2.97 0-2.97-3.12 0-5.71.26-11.5t.41-11.43q.3-12.1.45-24.16.14-12.06.14-24.16 0-3.63-.03-7.27-.04-3.64-.04-7.27 0-3.05 3.04-3.05h9.58q2.3 0 2.85 1.86.56 1.85.64 3.67.07 1.82.89 1.82.29 0 .81-.37 5.42-4.16 11.28-6.46 5.87-2.3 12.77-2.3 10.46 0 17.59 4.9 7.12 4.9 10.76 13.06 3.64 8.17 3.64 17.89 0 10.61-4.27 18.41-4.27 7.79-12.06 12.02-7.79 4.23-18.41 4.23m-3.49-15.22q5.65 0 10.28-2.59 4.64-2.6 7.43-7.09 2.78-4.49 2.78-10.13 0-8.83-5.72-14.51-5.71-5.68-14.54-5.68-6.31 0-11.21 3.19-4.9 3.19-7.12 9.13 0 3.71-.04 7.42t-.04 7.42q0 .38.48 1.56.49 1.19.63 1.56 2.38 4.83 7.13 7.28 4.75 2.44 9.94 2.44"></path><rect width="75.04" height="93.74" x="-37.52" y="-46.87" fill="none" rx="0" ry="0" transform="translate(364.15 98.06)"></rect><path fill="#ff851b" d="M438.94 121.565q-10.84 0-18.89-4.3-8.05-4.31-12.51-12.25-4.45-7.94-4.45-18.85 0-10.17 4.23-18.26 4.23-8.09 11.95-12.8 7.72-4.72 18.11-4.72 12.84 0 20.15 7.2 7.31 7.2 9.91 19.15.07.23.07.74 0 1.12-.56 1.67-.55.56-1.44.93-2.53 1.19-5.35 2.08-2.82.89-5.49 1.93-7.79 2.89-15.66 5.68-7.87 2.78-15.59 5.9-.59.3-.59.74 0 .22.15.52 2.97 5.34 8.16 7.94 5.2 2.6 11.14 2.6 4.67 0 8.72-1.49 4.04-1.48 7.98-3.71.52-.29 1.03-.52.52-.22 1.04-.22 1.04 0 1.6.63t.93 1.45q.29.52 1.15 2.34.85 1.82 1.63 3.63.78 1.82.78 2.34 0 .82-.45 1.34-.44.52-1.03.96-5.27 3.64-12.81 5.5-7.53 1.85-13.91 1.85m-18.63-36.14q7.49-2.6 14.99-5.2t14.92-5.19q-1.86-4.09-5.16-7.13t-8.13-3.04q-5.64 0-9.35 3.04t-5.49 7.76q-1.78 4.71-1.78 9.76"></path><rect width="64.42" height="71.18" x="-32.21" y="-35.59" fill="none" rx="0" ry="0" transform="translate(435.8 86.47)"></rect><path fill="#ff851b" d="M475.67 52.465h9.94q2.82 0 3.04 2.75l.75 8.46q0 .07.15 1.08.14 1 .52 1 .37 0 .77-.82.41-.81.49-.96 3.04-5.72 7.42-8.98 4.38-3.27 11.06-3.27 1.56 0 3.97.26t2.41 2.49q0 1.11-.45 3.49-.44 2.37-1 4.78-.55 2.41-.85 3.68-.3 1.26-.93 1.96-.63.71-2.11.71-.75 0-1.45-.11-.71-.11-1.52-.11-5.87 0-9.87 3.67-4.01 3.67-6.02 9.02-2 5.34-2 10.54v24.64q0 3.04-3.04 3.04h-11.51q-3.04 0-3.04-3.12 0-11.5.11-22.97.11-11.47.11-22.9v-15.28q0-3.05 3.05-3.05"></path><rect width="43.79" height="68.06" x="-21.89" y="-34.03" fill="none" rx="0" ry="0" transform="translate(494.8 86.25)"></rect><path fill="#fff" d="m34.026 93.744 7.527-92.171H6.188l7.527 92.171zM10.59 104.435h26.701v27.16h-26.7z"></path><circle r="19.77" fill="#ff851b" transform="translate(24.58 118.13)"></circle></svg></svg>